<?xml version="1.0" encoding="UTF-8"?>
<svg xmlns="http://www.w3.org/2000/svg" xmlns:xlink="http://www.w3.org/1999/xlink" version="1.1" viewBox="0 0 225 225">
  <title>monetr</title>
  <defs>
    <style>
      .cls-1 {
        fill: url(#linear-gradient-4);
      }

      .cls-2 {
        fill: url(#linear-gradient-3);
      }

      .cls-3 {
        fill: url(#linear-gradient-2);
      }

      .cls-4 {
        fill: #231f20;
      }

      .cls-5 {
        fill: url(#linear-gradient);
      }

      .cls-6 {
        fill: #ff5798;
      }

      .cls-7 {
        fill: #0093a6;
      }

      .cls-8 {
        fill: #4e1aa0;
      }
    </style>
    <linearGradient id="linear-gradient" x1="476" y1="-262.5" x2="482.4" y2="-339.9" gradientTransform="translate(-421.9 -162.3) scale(1 -1)" gradientUnits="userSpaceOnUse">
      <stop offset="0" stop-color="#829aff"/>
      <stop offset="1" stop-color="#2cedff"/>
    </linearGradient>
    <linearGradient id="linear-gradient-2" x1="596" y1="-265" x2="585.5" y2="-337.7" gradientTransform="translate(-421.9 -162.3) scale(1 -1)" gradientUnits="userSpaceOnUse">
      <stop offset="0" stop-color="#829aff"/>
      <stop offset="1" stop-color="#2cedff"/>
    </linearGradient>
    <linearGradient id="linear-gradient-3" x1="468.2" y1="-226.6" x2="538.9" y2="-321.8" gradientTransform="translate(-421.9 -162.3) scale(1 -1)" gradientUnits="userSpaceOnUse">
      <stop offset="0" stop-color="#7200e1"/>
      <stop offset="1" stop-color="#f056a3"/>
    </linearGradient>
    <linearGradient id="linear-gradient-4" x1="604.2" y1="-223.4" x2="514.7" y2="-329.9" gradientTransform="translate(-421.9 -162.3) scale(1 -1)" gradientUnits="userSpaceOnUse">
      <stop offset="0" stop-color="#7200e1"/>
      <stop offset="1" stop-color="#f056a3"/>
    </linearGradient>
  </defs>
  <!-- Generator: Adobe Illustrator 28.7.1, SVG Export Plug-In . SVG Version: 1.2.0 Build 142)  -->
  <g>
    <g id="Layer_1">
      <g>
        <path class="cls-7" d="M190.5,60.9c.5-4-.8-8.1-3.5-11.1-4.8-5.2-11.7-4.1-12.2-4h-22.4c.4,2-.6,4.2-3.2,4.1-8.2-.6-12.2,6.9-18,11.3-1.8,1.4-3.6.5-4.4-1.2l-14.3,12.9-19.4-17.4c-.8.5-1.8.5-2.6.2-2.9-1-5.6-2.3-8.2-3.9-1-.8-2.1-1.5-3.3-2-1.5-.2-3-.3-4.5-.1-1.8,0-3.3-1.4-3.3-3.2,0-.2,0-.5,0-.7h-21c-2.5-.3-5,0-7.4.9l-.5.2h-.1c-1.7.8-3.3,1.9-4.6,3.4-2.5,3-3.7,6.8-3.2,10.7h0v104.4c-.7,7.1,4.4,13.4,11.5,14.1,3.2.3,6.3-.5,8.9-2.4l28.5-28.5h0c8.7,8.9,13.7,16.9,27.7,16.9s23.2-8,30.7-16.9l28.5,28.5c5.7,4.2,13.8,2.9,18-2.8,1.9-2.6,2.7-5.7,2.4-8.9V60.9Z"/>
        <path class="cls-4" d="M42.4,46.9l.5-.2-.5.2Z"/>
        <path class="cls-5" d="M34.5,60.9c-.4-4.2,1-8.4,4-11.5,1.1-1.1,2.3-1.9,3.7-2.5-1.7.8-3.3,1.9-4.6,3.4-2.5,3-3.6,6.8-3.1,10.7v104.4c-.7,7.1,4.4,13.4,11.5,14.1,3.2.3,6.3-.5,8.9-2.4l28.5-28.5-48.8-47.9v-39.7Z"/>
        <path class="cls-4" d="M71.2,45.7"/>
        <path class="cls-4" d="M174.8,45.7h0Z"/>
        <path class="cls-3" d="M190.5,100.6l-48.8,47.9h0l28.5,28.5c5.7,4.2,13.8,2.9,18-2.8,1.9-2.6,2.7-5.7,2.4-8.9v-64.7Z"/>
        <path class="cls-4" d="M187.3,50.2c2.5,3,3.6,6.8,3.2,10.7h0c.5-4-.8-8.1-3.5-11.1-4.8-5.2-11.7-4.1-12.2-4,.5,0,7.7-1,12.5,4.5Z"/>
        <path class="cls-4" d="M42.2,46.9h.1-.1Z"/>
        <path class="cls-6" d="M83.3,148.6h0c8.7,8.9,13.7,16.9,27.7,16.9s23.2-8,30.7-16.9l-29.2-29.1-29.2,29.1Z"/>
        <path class="cls-4" d="M50.2,45.7c-2.5-.3-5,0-7.4.9,2.3-.9,4.9-1.2,7.4-.9Z"/>
        <path class="cls-2" d="M62.4,69.4c-5.5-5.2-5.8-13.9-.5-19.4,2.4-2.6,5.8-4.1,9.3-4.3h-21c-2.5-.3-5,0-7.4.9l-.5.2h-.1c-1.4.6-2.6,1.5-3.7,2.5-3,3-4.4,7.2-4,11.5v39.7l48.8,47.9,29.1-29.1-50.1-50Z"/>
        <path class="cls-1" d="M190.5,100.6v-39.7h0c.4-3.8-.7-7.7-3.2-10.7-4.8-5.5-12-4.6-12.5-4.5h-21c7.6.4,13.4,6.8,13.1,14.4-.2,3.5-1.7,6.9-4.3,9.3l-50.1,50,29.2,29.1h0l48.8-47.9Z"/>
        <path class="cls-8" d="M58.9,54.9c-1.8,5.1-.4,10.8,3.5,14.5l50,50,50.1-50c5.5-5.2,5.8-13.9.5-19.4-2.4-2.6-5.8-4.1-9.3-4.3h0c-7.2,0-14.2,2.7-19.5,7.5l-21.8,19.6-21.8-19.6c-5.4-4.8-12.3-7.5-19.5-7.5h0c-5.6.3-10.4,3.9-12.3,9.1Z"/>
      </g>
    </g>
  </g>
</svg>
