<svg xmlns="http://www.w3.org/2000/svg" version="1.1" xmlns:xlink="http://www.w3.org/1999/xlink"
     xmlns:svgjs="http://svgjs.dev/svgjs" viewBox="0 0 1920 1080" style="overflow: hidden; height: 85vh;"
     class="overflow-hidden rounded-md drop-shadow-lg transition duration-300">
    <rect width="1920" height="1080" fill="#4e1aa0"></rect>
    <g clip-path="url(&quot;#SvgjsClipPath3844&quot;)">
        <g transform="matrix(-2.112515728529184e-16,-1.15,1.15,-2.112515728529184e-16,312.78762817382835,1613.8557723999024)">
            <path d="M0,-1080C-0.6050400760657885,-995.8151223619251,-5.634545331568413,-744.0291042207657,-3.6302404563947306,-574.8907341715505C-1.6259355812210479,-405.7523641223354,16.64061047691511,-262.2561701492432,12.025829251042097,-65.16977970470913C7.411048025169083,131.9166107398249,-21.41091972439078,422.7486508677366,-31.31892781163282,607.6276084956538C-41.226935898874856,792.506566123571,-61.938001316621815,870.3929041055848,-47.42221927241012,1044.1039660627941C-32.90643722819842,1217.8150280200036,47.87206124156903,1463.911307916043,55.77576445363738,1649.8939802389104C63.67946766570573,1835.876652561778,9.295960742272896,2074.9823300398184,0,2160L 1920 2160 L 1920 -1080 Z"
                  fill="url(&quot;#SvgjsLinearGradient3832&quot;)"></path>
            <path d="M160,-1080C171.0250108199466,-1009.9039492601215,231.16604313154167,-788.9081991734264,226.1500649196797,-659.423695560729C221.13408670781772,-529.9391919480316,131.9996677423797,-439.4901860311728,129.9041307288282,-303.0929783238158C127.80859371527669,-166.69577061645882,201.2828253128149,7.517942108728249,213.57684283837068,158.95955068341317C225.87086036392645,310.4011592580981,219.44448507202668,482.6696793962205,203.66823588216286,605.5566731242938C187.89198669229904,728.443666852367,118.57020049371573,782.9501381141033,118.91934769918784,896.2815130518527C119.26849490465995,1009.6128879896021,203.10178846028649,1138.4072142610482,205.76311911499553,1285.5449227507904C208.42444976970458,1432.6826312405326,142.51451814660808,1633.365251115437,134.88733162744217,1779.1077639903053C127.26014510827625,1924.8502768651736,155.81455527124035,2096.517960665051,160,2160L 1920 2160 L 1920 -1080 Z"
                  fill="url(&quot;#SvgjsLinearGradient3833&quot;)"></path>
            <path d="M320,-1080C330.21089966565256,-991.4916459766758,386.61271915024986,-720.281928428143,381.26539799391537,-548.9498758600549C375.9180768375809,-377.61782329196683,290.22013592810123,-227.34525578841578,287.916073061993,-52.00768459147128C285.6120101958848,123.32988660547323,371.88728999787696,308.9138655089975,367.4410207972661,503.0755513216122C362.99475159665525,697.2372371342269,266.53765925389564,932.9250762494437,261.238457858328,1112.9624302842167C255.93925646276037,1292.9997843189897,325.852222066915,1408.7934139109532,335.6458124238603,1583.2996755302504C345.43940278080566,1757.8059371495476,322.6076354039767,2063.8832792550415,320,2160L 1920 2160 L 1920 -1080 Z"
                  fill="url(&quot;#SvgjsLinearGradient3834&quot;)"></path>
            <path d="M480,-1080C477.6572106970497,-974.6813944429807,454.13627435732485,-668.1422974258435,465.9432641822982,-448.0883666578842C477.75025400727156,-228.03443588992488,552.8005000341307,32.93466964923053,550.8419389498401,240.3235846077559C548.8833778655496,447.7124995662813,459.97535653144274,580.7648728428668,454.19189767655473,796.245123093268C448.4084388216667,1011.7253733436693,511.8398354332712,1305.9126066257083,516.1411858205121,1533.2050861101636C520.4425362077529,1760.497565594619,486.02353097008535,2055.5341810183604,480,2160L 1920 2160 L 1920 -1080 Z"
                  fill="url(&quot;#SvgjsLinearGradient3835&quot;)"></path>
            <path d="M640,-1080C646.8590492319512,-971.2574198567922,684.5887855651071,-635.8028998391941,681.1542953917074,-427.5445191407538C677.7198052183077,-219.2861384423135,617.3853870010623,-46.06581293186511,619.3930589596018,169.55028419064163C621.4007309181413,385.16638131314835,696.5636435758419,632.8253885755385,693.2003271429446,866.1520635942866C689.8370107100474,1099.4787386130347,608.0798815527093,1353.869011568845,599.2131603622184,1569.5103343031305C590.3464391717276,1785.151657037416,633.202193393703,2061.5850557171884,640,2160L 1920 2160 L 1920 -1080 Z"
                  fill="url(&quot;#SvgjsLinearGradient3836&quot;)"></path>
            <path d="M800,-1080C788.484361945213,-978.8595097345114,739.5974092733957,-683.2515860710616,730.9061716712779,-473.15705840706886C722.2149340691601,-263.062530743076,743.4026022106444,-53.44780426048271,747.8525743872935,180.56716598395704C752.3025465639427,414.5821362283968,745.4285898587365,712.098626195621,757.6060047311724,930.9327630595698C769.7834196036084,1149.7668999235186,813.8513977437716,1288.727447677578,820.9170636219095,1493.5719871676497C827.9827295000474,1698.4165266577213,803.4861772703182,2048.9286645279417,800,2160L 1920 2160 L 1920 -1080 Z"
                  fill="url(&quot;#SvgjsLinearGradient3837&quot;)"></path>
            <path d="M960,-1080C961.5013132957571,-988.2151816597534,974.131684429898,-712.6495499568905,969.0078797745424,-529.2910899585202C963.8840751191868,-345.9326299601498,930.5495685543066,-167.9569851892632,929.2571720678666,20.15075999022183C927.9647755814266,208.2585051697069,945.7833067285649,429.2288357309434,961.2535008559022,599.3553811183901C976.7236949832395,769.4819265058369,1012.2413604603732,871.3253774855217,1022.0783368318904,1040.910032314902C1031.9153132034075,1210.4946871442826,1030.6217485569864,1430.3483154804896,1020.2753590850048,1616.8633100946727C1009.928969613023,1803.3783047088557,970.0458931808341,2069.4772183491123,960,2160L 1920 2160 L 1920 -1080 Z"
                  fill="url(&quot;#SvgjsLinearGradient3838&quot;)"></path>
            <path d="M1120,-1080C1112.3988807923004,-1012.7058389889978,1080.681982902615,-826.081746474914,1074.393284753802,-676.2350339339871C1068.104586604989,-526.3883213930602,1086.3451624654151,-345.0350805780899,1082.2678111071216,-180.91972475443865C1078.190459748828,-16.804368930787405,1031.7715006993258,138.35886582383264,1049.9291766040405,308.4571010079203C1068.0868525087553,478.555336192008,1184.866871909428,696.8493640638645,1191.2138665354107,839.6696863500873C1197.5608611613934,982.4900086363101,1096.0309858282847,1020.200704809836,1088.0111443599374,1165.379034725257C1079.99130289159,1310.557364640678,1137.7633417853165,1544.96950496349,1143.094817725327,1710.7396658426137C1148.4262936653374,1876.5098267217375,1123.8491362875545,2085.123277640436,1120,2160L 1920 2160 L 1920 -1080 Z"
                  fill="url(&quot;#SvgjsLinearGradient3839&quot;)"></path>
            <path d="M1280,-1080C1270.5911634625782,-997.6461802793131,1213.0966560919517,-760.4054416715317,1223.5469807754682,-585.877081675878C1233.9973054589848,-411.34872168022434,1334.1728455610137,-209.33966051629983,1342.7019481010998,-32.82984002607802C1351.231050641186,143.6799804641438,1283.7388905936302,292.17353929117394,1274.7215960159856,473.18184126545293C1265.704301438341,654.1901432397319,1276.3397591812727,865.3492347812814,1288.5981806352315,1053.2199718195957C1300.8566020891903,1241.09070885791,1349.7051548456104,1415.942925465271,1348.2721247397385,1600.4062634953384C1346.8390946338666,1784.8696015254059,1291.378687456623,2066.734377249223,1280,2160L 1920 2160 L 1920 -1080 Z"
                  fill="url(&quot;#SvgjsLinearGradient3840&quot;)"></path>
            <path d="M1440,-1080C1449.3215034958455,-1006.1414403836936,1507.4146945794355,-793.9230270785343,1495.929020975073,-636.8486423021619C1484.4433473707104,-479.7742575257895,1372.5631608124004,-305.20607745925366,1371.085958373824,-137.55369134176536C1369.6087559352477,30.098694775722947,1473.5092293412008,214.49764633329795,1487.0658063436153,369.06567440276797C1500.62238334603,523.6337024722379,1450.0926018936038,642.7439472102196,1452.4254203883113,789.8544770750548C1454.7582388830187,936.9650069398899,1497.9767296888022,1106.473004437582,1501.0627173118603,1251.728853591779C1504.1487049349184,1396.984702745976,1481.1184656786363,1510.011047598866,1470.9413461266597,1661.3895720002363C1460.764226574683,1812.7680964016065,1445.15689102111,2076.8982620000393,1440,2160L 1920 2160 L 1920 -1080 Z"
                  fill="url(&quot;#SvgjsLinearGradient3841&quot;)"></path>
            <path d="M1600,-1080C1609.0215252821,-1003.1067297411155,1645.6855171713526,-746.0737767316923,1654.1291516926,-618.6403784466928C1662.5727862138476,-491.20698016169325,1666.9300215075523,-436.2271048778194,1650.6618071274852,-315.39961029000267C1634.393592747418,-194.57211570218595,1555.097618139666,-43.01856778136499,1556.5198654121969,106.32458908020743C1557.9421126847276,255.66774594177986,1658.1004969866394,443.62438638599326,1659.1952907626694,580.6593308794319C1660.2900845386994,717.6942753728705,1579.5191650374577,805.040905189891,1563.0886280683771,928.5342560408394C1546.6580910992966,1052.0276068917879,1559.1064961924162,1190.254799231599,1560.612068948186,1321.619435985123C1562.117641703956,1452.9840727386468,1565.557409427694,1576.9919825595032,1572.1220646029963,1716.7220765619827C1578.6867197782985,1856.4521705644622,1595.3536774338327,2086.120346093664,1600,2160L 1920 2160 L 1920 -1080 Z"
                  fill="url(&quot;#SvgjsLinearGradient3842&quot;)"></path>
            <path d="M1760,-1080C1747.8595936758459,-993.1344147231205,1685.2722498711018,-715.5787971962766,1687.1575620550757,-558.806488338723C1689.0428742390495,-402.03417948116953,1767.1370734381317,-282.86501484193013,1771.3118731038423,-139.36614685467896C1775.486672769553,4.132721132572243,1710.6424257051217,144.06007750733212,1712.2063600493404,302.1867195847841C1713.7702943935592,460.31336166223605,1771.7991785595345,644.4783879534334,1780.695479169155,809.393705610033C1789.5917797787756,974.3090232666325,1764.060801313655,1155.8780141736686,1765.5841637070635,1291.6786255243812C1767.107526100472,1427.4792368750939,1790.7663474807832,1479.4771446350392,1789.835653529606,1624.197373714309C1788.9049595784286,1768.9176027935787,1764.972608921601,2070.699562285718,1760,2160L 1920 2160 L 1920 -1080 Z"
                  fill="url(&quot;#SvgjsLinearGradient3843&quot;)"></path>
        </g>
    </g>
    <defs>
        <linearGradient x1="0.1" y1="0" x2="0" y2="1" id="SvgjsLinearGradient3832">
            <stop stop-color="#4e1aa0" offset="0"></stop>
            <stop stop-color="#381aa0" offset="0"></stop>
        </linearGradient>
        <linearGradient x1="0.1" y1="0" x2="0" y2="1" id="SvgjsLinearGradient3833">
            <stop stop-color="#5c1fbc" offset="0"></stop>
            <stop stop-color="#421fbc" offset="0.08333333333333333"></stop>
        </linearGradient>
        <linearGradient x1="0.1" y1="0" x2="0" y2="1" id="SvgjsLinearGradient3834">
            <stop stop-color="#6a23d9" offset="0"></stop>
            <stop stop-color="#4c23d9" offset="0.16666666666666666"></stop>
        </linearGradient>
        <linearGradient x1="0.1" y1="0" x2="0" y2="1" id="SvgjsLinearGradient3835">
            <stop stop-color="#7c3de0" offset="0"></stop>
            <stop stop-color="#613de0" offset="0.25"></stop>
        </linearGradient>
        <linearGradient x1="0.1" y1="0" x2="0" y2="1" id="SvgjsLinearGradient3836">
            <stop stop-color="#905ae4" offset="0"></stop>
            <stop stop-color="#795ae4" offset="0.3333333333333333"></stop>
        </linearGradient>
        <linearGradient x1="0.1" y1="0" x2="0" y2="1" id="SvgjsLinearGradient3837">
            <stop stop-color="#a376e9" offset="0"></stop>
            <stop stop-color="#9076e9" offset="0.4166666666666667"></stop>
        </linearGradient>
        <linearGradient x1="0.1" y1="0" x2="0" y2="1" id="SvgjsLinearGradient3838">
            <stop stop-color="#b693ed" offset="0"></stop>
            <stop stop-color="#a793ed" offset="0.5"></stop>
        </linearGradient>
        <linearGradient x1="0.1" y1="0" x2="0" y2="1" id="SvgjsLinearGradient3839">
            <stop stop-color="#c9aff2" offset="0"></stop>
            <stop stop-color="#beaff2" offset="0.5833333333333334"></stop>
        </linearGradient>
        <linearGradient x1="0.1" y1="0" x2="0" y2="1" id="SvgjsLinearGradient3840">
            <stop stop-color="#dcccf7" offset="0"></stop>
            <stop stop-color="#d5ccf7" offset="0.6666666666666666"></stop>
        </linearGradient>
        <linearGradient x1="0.1" y1="0" x2="0" y2="1" id="SvgjsLinearGradient3841">
            <stop stop-color="#efe8fb" offset="0"></stop>
            <stop stop-color="#ece8fb" offset="0.75"></stop>
        </linearGradient>
        <linearGradient x1="0.1" y1="0" x2="0" y2="1" id="SvgjsLinearGradient3842">
            <stop stop-color="#ffffff" offset="0"></stop>
            <stop stop-color="#ffffff" offset="0.8333333333333334"></stop>
        </linearGradient>
        <linearGradient x1="0.1" y1="0" x2="0" y2="1" id="SvgjsLinearGradient3843">
            <stop stop-color="#ffffff" offset="0"></stop>
            <stop stop-color="#ffffff" offset="0.9166666666666666"></stop>
        </linearGradient>
        <clipPath id="SvgjsClipPath3844">
            <rect width="1920" height="1080"></rect>
        </clipPath>
    </defs>
</svg>
